<svg id="visual" viewBox="0 0 900 600" width="900" height="600" xmlns="http://www.w3.org/2000/svg" xmlns:xlink="http://www.w3.org/1999/xlink" version="1.1"><rect width="900" height="600" fill="#040b14"></rect><g><g transform="translate(410 13)"><path d="M0 -88.8L69.4 -55.4L86.6 19.8L38.5 80L-38.5 80L-86.6 19.8L-69.4 -55.4Z" fill="#297EA6"></path></g><g transform="translate(314 556)"><path d="M0 -57L44.6 -35.5L55.6 12.7L24.7 51.4L-24.7 51.4L-55.6 12.7L-44.6 -35.5Z" fill="#297EA6"></path></g><g transform="translate(897 496)"><path d="M0 -76L59.4 -47.4L74.1 16.9L33 68.5L-33 68.5L-74.1 16.9L-59.4 -47.4Z" fill="#297EA6"></path></g><g transform="translate(133 233)"><path d="M0 -67L52.4 -41.8L65.3 14.9L29.1 60.4L-29.1 60.4L-65.3 14.9L-52.4 -41.8Z" fill="#297EA6"></path></g><g transform="translate(733 379)"><path d="M0 -56L43.8 -34.9L54.6 12.5L24.3 50.5L-24.3 50.5L-54.6 12.5L-43.8 -34.9Z" fill="#297EA6"></path></g><g transform="translate(620 577)"><path d="M0 -61L47.7 -38L59.5 13.6L26.5 55L-26.5 55L-59.5 13.6L-47.7 -38Z" fill="#297EA6"></path></g></g></svg>