<svg id="visual" viewBox="0 0 900 600" width="900" height="600" xmlns="http://www.w3.org/2000/svg" xmlns:xlink="http://www.w3.org/1999/xlink" version="1.1"><g><g transform="translate(523 155)"><path d="M0 -13.1L10.3 -8.2L12.8 2.9L5.7 11.8L-5.7 11.8L-12.8 2.9L-10.3 -8.2Z" fill="#297EA6"></path></g><g transform="translate(667 402)"><path d="M0 -13L10.2 -8.1L12.7 2.9L5.6 11.7L-5.6 11.7L-12.7 2.9L-10.2 -8.1Z" fill="#297EA6"></path></g><g transform="translate(118 397)"><path d="M0 -13L10.2 -8.1L12.7 2.9L5.6 11.7L-5.6 11.7L-12.7 2.9L-10.2 -8.1Z" fill="#297EA6"></path></g><g transform="translate(544 195)"><path d="M0 -13L10.2 -8.1L12.7 2.9L5.6 11.7L-5.6 11.7L-12.7 2.9L-10.2 -8.1Z" fill="#297EA6"></path></g><g transform="translate(808 247)"><path d="M0 -13L10.2 -8.1L12.7 2.9L5.6 11.7L-5.6 11.7L-12.7 2.9L-10.2 -8.1Z" fill="#297EA6"></path></g><g transform="translate(664 90)"><path d="M0 -13L10.2 -8.1L12.7 2.9L5.6 11.7L-5.6 11.7L-12.7 2.9L-10.2 -8.1Z" fill="#297EA6"></path></g><g transform="translate(417 245)"><path d="M0 -13L10.2 -8.1L12.7 2.9L5.6 11.7L-5.6 11.7L-12.7 2.9L-10.2 -8.1Z" fill="#297EA6"></path></g><g transform="translate(557 340)"><path d="M0 -13L10.2 -8.1L12.7 2.9L5.6 11.7L-5.6 11.7L-12.7 2.9L-10.2 -8.1Z" fill="#297EA6"></path></g><g transform="translate(113 163)"><path d="M0 -13L10.2 -8.1L12.7 2.9L5.6 11.7L-5.6 11.7L-12.7 2.9L-10.2 -8.1Z" fill="#297EA6"></path></g><g transform="translate(604 58)"><path d="M0 -13L10.2 -8.1L12.7 2.9L5.6 11.7L-5.6 11.7L-12.7 2.9L-10.2 -8.1Z" fill="#297EA6"></path></g><g transform="translate(491 557)"><path d="M0 -13L10.2 -8.1L12.7 2.9L5.6 11.7L-5.6 11.7L-12.7 2.9L-10.2 -8.1Z" fill="#297EA6"></path></g><g transform="translate(423 152)"><path d="M0 -13L10.2 -8.1L12.7 2.9L5.6 11.7L-5.6 11.7L-12.7 2.9L-10.2 -8.1Z" fill="#297EA6"></path></g><g transform="translate(885 339)"><path d="M0 -13L10.2 -8.1L12.7 2.9L5.6 11.7L-5.6 11.7L-12.7 2.9L-10.2 -8.1Z" fill="#297EA6"></path></g><g transform="translate(367 342)"><path d="M0 -13L10.2 -8.1L12.7 2.9L5.6 11.7L-5.6 11.7L-12.7 2.9L-10.2 -8.1Z" fill="#297EA6"></path></g><g transform="translate(349 454)"><path d="M0 -13L10.2 -8.1L12.7 2.9L5.6 11.7L-5.6 11.7L-12.7 2.9L-10.2 -8.1Z" fill="#297EA6"></path></g><g transform="translate(579 38)"><path d="M0 -13L10.2 -8.1L12.7 2.9L5.6 11.7L-5.6 11.7L-12.7 2.9L-10.2 -8.1Z" fill="#297EA6"></path></g><g transform="translate(688 153)"><path d="M0 -13L10.2 -8.1L12.7 2.9L5.6 11.7L-5.6 11.7L-12.7 2.9L-10.2 -8.1Z" fill="#297EA6"></path></g><g transform="translate(468 253)"><path d="M0 -13L10.2 -8.1L12.7 2.9L5.6 11.7L-5.6 11.7L-12.7 2.9L-10.2 -8.1Z" fill="#297EA6"></path></g><g transform="translate(251 166)"><path d="M0 -13L10.2 -8.1L12.7 2.9L5.6 11.7L-5.6 11.7L-12.7 2.9L-10.2 -8.1Z" fill="#297EA6"></path></g><g transform="translate(223 86)"><path d="M0 -13L10.2 -8.1L12.7 2.9L5.6 11.7L-5.6 11.7L-12.7 2.9L-10.2 -8.1Z" fill="#297EA6"></path></g><g transform="translate(139 583)"><path d="M0 -13L10.2 -8.1L12.7 2.9L5.6 11.7L-5.6 11.7L-12.7 2.9L-10.2 -8.1Z" fill="#297EA6"></path></g><g transform="translate(60 147)"><path d="M0 -13L10.2 -8.1L12.7 2.9L5.6 11.7L-5.6 11.7L-12.7 2.9L-10.2 -8.1Z" fill="#297EA6"></path></g><g transform="translate(680 437)"><path d="M0 -13L10.2 -8.1L12.7 2.9L5.6 11.7L-5.6 11.7L-12.7 2.9L-10.2 -8.1Z" fill="#297EA6"></path></g><g transform="translate(180 88)"><path d="M0 -13L10.2 -8.1L12.7 2.9L5.6 11.7L-5.6 11.7L-12.7 2.9L-10.2 -8.1Z" fill="#297EA6"></path></g><g transform="translate(310 103)"><path d="M0 -13L10.2 -8.1L12.7 2.9L5.6 11.7L-5.6 11.7L-12.7 2.9L-10.2 -8.1Z" fill="#297EA6"></path></g><g transform="translate(53 388)"><path d="M0 -13L10.2 -8.1L12.7 2.9L5.6 11.7L-5.6 11.7L-12.7 2.9L-10.2 -8.1Z" fill="#297EA6"></path></g><g transform="translate(874 66)"><path d="M0 -13L10.2 -8.1L12.7 2.9L5.6 11.7L-5.6 11.7L-12.7 2.9L-10.2 -8.1Z" fill="#297EA6"></path></g><g transform="translate(251 559)"><path d="M0 -13L10.2 -8.1L12.7 2.9L5.6 11.7L-5.6 11.7L-12.7 2.9L-10.2 -8.1Z" fill="#297EA6"></path></g><g transform="translate(382 176)"><path d="M0 -13L10.2 -8.1L12.7 2.9L5.6 11.7L-5.6 11.7L-12.7 2.9L-10.2 -8.1Z" fill="#297EA6"></path></g><g transform="translate(856 290)"><path d="M0 -13L10.2 -8.1L12.7 2.9L5.6 11.7L-5.6 11.7L-12.7 2.9L-10.2 -8.1Z" fill="#297EA6"></path></g><g transform="translate(621 27)"><path d="M0 -13L10.2 -8.1L12.7 2.9L5.6 11.7L-5.6 11.7L-12.7 2.9L-10.2 -8.1Z" fill="#297EA6"></path></g><g transform="translate(192 568)"><path d="M0 -13L10.2 -8.1L12.7 2.9L5.6 11.7L-5.6 11.7L-12.7 2.9L-10.2 -8.1Z" fill="#297EA6"></path></g><g transform="translate(441 508)"><path d="M0 -13L10.2 -8.1L12.7 2.9L5.6 11.7L-5.6 11.7L-12.7 2.9L-10.2 -8.1Z" fill="#297EA6"></path></g><g transform="translate(799 448)"><path d="M0 -13L10.2 -8.1L12.7 2.9L5.6 11.7L-5.6 11.7L-12.7 2.9L-10.2 -8.1Z" fill="#297EA6"></path></g><g transform="translate(200 114)"><path d="M0 -13L10.2 -8.1L12.7 2.9L5.6 11.7L-5.6 11.7L-12.7 2.9L-10.2 -8.1Z" fill="#297EA6"></path></g><g transform="translate(676 354)"><path d="M0 -13L10.2 -8.1L12.7 2.9L5.6 11.7L-5.6 11.7L-12.7 2.9L-10.2 -8.1Z" fill="#297EA6"></path></g><g transform="translate(437 328)"><path d="M0 -13L10.2 -8.1L12.7 2.9L5.6 11.7L-5.6 11.7L-12.7 2.9L-10.2 -8.1Z" fill="#297EA6"></path></g><g transform="translate(174 371)"><path d="M0 -13L10.2 -8.1L12.7 2.9L5.6 11.7L-5.6 11.7L-12.7 2.9L-10.2 -8.1Z" fill="#297EA6"></path></g><g transform="translate(821 162)"><path d="M0 -13L10.2 -8.1L12.7 2.9L5.6 11.7L-5.6 11.7L-12.7 2.9L-10.2 -8.1Z" fill="#297EA6"></path></g><g transform="translate(212 195)"><path d="M0 -13L10.2 -8.1L12.7 2.9L5.6 11.7L-5.6 11.7L-12.7 2.9L-10.2 -8.1Z" fill="#297EA6"></path></g><g transform="translate(104 570)"><path d="M0 -13L10.2 -8.1L12.7 2.9L5.6 11.7L-5.6 11.7L-12.7 2.9L-10.2 -8.1Z" fill="#297EA6"></path></g><g transform="translate(202 415)"><path d="M0 -13L10.2 -8.1L12.7 2.9L5.6 11.7L-5.6 11.7L-12.7 2.9L-10.2 -8.1Z" fill="#297EA6"></path></g><g transform="translate(200 375)"><path d="M0 -13L10.2 -8.1L12.7 2.9L5.6 11.7L-5.6 11.7L-12.7 2.9L-10.2 -8.1Z" fill="#297EA6"></path></g><g transform="translate(263 39)"><path d="M0 -13L10.2 -8.1L12.7 2.9L5.6 11.7L-5.6 11.7L-12.7 2.9L-10.2 -8.1Z" fill="#297EA6"></path></g><g transform="translate(790 166)"><path d="M0 -13L10.2 -8.1L12.7 2.9L5.6 11.7L-5.6 11.7L-12.7 2.9L-10.2 -8.1Z" fill="#297EA6"></path></g><g transform="translate(576 557)"><path d="M0 -13L10.2 -8.1L12.7 2.9L5.6 11.7L-5.6 11.7L-12.7 2.9L-10.2 -8.1Z" fill="#297EA6"></path></g><g transform="translate(855 403)"><path d="M0 -13L10.2 -8.1L12.7 2.9L5.6 11.7L-5.6 11.7L-12.7 2.9L-10.2 -8.1Z" fill="#297EA6"></path></g><g transform="translate(316 138)"><path d="M0 -13L10.2 -8.1L12.7 2.9L5.6 11.7L-5.6 11.7L-12.7 2.9L-10.2 -8.1Z" fill="#297EA6"></path></g><g transform="translate(287 275)"><path d="M0 -13L10.2 -8.1L12.7 2.9L5.6 11.7L-5.6 11.7L-12.7 2.9L-10.2 -8.1Z" fill="#297EA6"></path></g><g transform="translate(192 442)"><path d="M0 -13L10.2 -8.1L12.7 2.9L5.6 11.7L-5.6 11.7L-12.7 2.9L-10.2 -8.1Z" fill="#297EA6"></path></g><g transform="translate(696 109)"><path d="M0 -13L10.2 -8.1L12.7 2.9L5.6 11.7L-5.6 11.7L-12.7 2.9L-10.2 -8.1Z" fill="#297EA6"></path></g><g transform="translate(698 246)"><path d="M0 -13L10.2 -8.1L12.7 2.9L5.6 11.7L-5.6 11.7L-12.7 2.9L-10.2 -8.1Z" fill="#297EA6"></path></g><g transform="translate(504 411)"><path d="M0 -13L10.2 -8.1L12.7 2.9L5.6 11.7L-5.6 11.7L-12.7 2.9L-10.2 -8.1Z" fill="#297EA6"></path></g><g transform="translate(135 46)"><path d="M0 -13L10.2 -8.1L12.7 2.9L5.6 11.7L-5.6 11.7L-12.7 2.9L-10.2 -8.1Z" fill="#297EA6"></path></g><g transform="translate(180 310)"><path d="M0 -13L10.2 -8.1L12.7 2.9L5.6 11.7L-5.6 11.7L-12.7 2.9L-10.2 -8.1Z" fill="#297EA6"></path></g><g transform="translate(5 408)"><path d="M0 -13L10.2 -8.1L12.7 2.9L5.6 11.7L-5.6 11.7L-12.7 2.9L-10.2 -8.1Z" fill="#297EA6"></path></g><g transform="translate(859 186)"><path d="M0 -13L10.2 -8.1L12.7 2.9L5.6 11.7L-5.6 11.7L-12.7 2.9L-10.2 -8.1Z" fill="#297EA6"></path></g><g transform="translate(567 94)"><path d="M0 -13L10.2 -8.1L12.7 2.9L5.6 11.7L-5.6 11.7L-12.7 2.9L-10.2 -8.1Z" fill="#297EA6"></path></g><g transform="translate(805 80)"><path d="M0 -13L10.2 -8.1L12.7 2.9L5.6 11.7L-5.6 11.7L-12.7 2.9L-10.2 -8.1Z" fill="#297EA6"></path></g><g transform="translate(866 246)"><path d="M0 -13L10.2 -8.1L12.7 2.9L5.6 11.7L-5.6 11.7L-12.7 2.9L-10.2 -8.1Z" fill="#297EA6"></path></g><g transform="translate(218 539)"><path d="M0 -13L10.2 -8.1L12.7 2.9L5.6 11.7L-5.6 11.7L-12.7 2.9L-10.2 -8.1Z" fill="#297EA6"></path></g><g transform="translate(630 342)"><path d="M0 -13L10.2 -8.1L12.7 2.9L5.6 11.7L-5.6 11.7L-12.7 2.9L-10.2 -8.1Z" fill="#297EA6"></path></g><g transform="translate(260 487)"><path d="M0 -13L10.2 -8.1L12.7 2.9L5.6 11.7L-5.6 11.7L-12.7 2.9L-10.2 -8.1Z" fill="#297EA6"></path></g><g transform="translate(295 250)"><path d="M0 -13L10.2 -8.1L12.7 2.9L5.6 11.7L-5.6 11.7L-12.7 2.9L-10.2 -8.1Z" fill="#297EA6"></path></g><g transform="translate(428 100)"><path d="M0 -13L10.2 -8.1L12.7 2.9L5.6 11.7L-5.6 11.7L-12.7 2.9L-10.2 -8.1Z" fill="#297EA6"></path></g><g transform="translate(677 525)"><path d="M0 -13L10.2 -8.1L12.7 2.9L5.6 11.7L-5.6 11.7L-12.7 2.9L-10.2 -8.1Z" fill="#297EA6"></path></g><g transform="translate(534 296)"><path d="M0 -13L10.2 -8.1L12.7 2.9L5.6 11.7L-5.6 11.7L-12.7 2.9L-10.2 -8.1Z" fill="#297EA6"></path></g><g transform="translate(572 428)"><path d="M0 -13L10.2 -8.1L12.7 2.9L5.6 11.7L-5.6 11.7L-12.7 2.9L-10.2 -8.1Z" fill="#297EA6"></path></g><g transform="translate(667 559)"><path d="M0 -13L10.2 -8.1L12.7 2.9L5.6 11.7L-5.6 11.7L-12.7 2.9L-10.2 -8.1Z" fill="#297EA6"></path></g><g transform="translate(517 96)"><path d="M0 -13L10.2 -8.1L12.7 2.9L5.6 11.7L-5.6 11.7L-12.7 2.9L-10.2 -8.1Z" fill="#297EA6"></path></g><g transform="translate(628 121)"><path d="M0 -13L10.2 -8.1L12.7 2.9L5.6 11.7L-5.6 11.7L-12.7 2.9L-10.2 -8.1Z" fill="#297EA6"></path></g><g transform="translate(415 402)"><path d="M0 -13L10.2 -8.1L12.7 2.9L5.6 11.7L-5.6 11.7L-12.7 2.9L-10.2 -8.1Z" fill="#297EA6"></path></g><g transform="translate(123 123)"><path d="M0 -13L10.2 -8.1L12.7 2.9L5.6 11.7L-5.6 11.7L-12.7 2.9L-10.2 -8.1Z" fill="#297EA6"></path></g><g transform="translate(14 436)"><path d="M0 -13L10.2 -8.1L12.7 2.9L5.6 11.7L-5.6 11.7L-12.7 2.9L-10.2 -8.1Z" fill="#297EA6"></path></g><g transform="translate(15 200)"><path d="M0 -13L10.2 -8.1L12.7 2.9L5.6 11.7L-5.6 11.7L-12.7 2.9L-10.2 -8.1Z" fill="#297EA6"></path></g><g transform="translate(168 145)"><path d="M0 -13L10.2 -8.1L12.7 2.9L5.6 11.7L-5.6 11.7L-12.7 2.9L-10.2 -8.1Z" fill="#297EA6"></path></g><g transform="translate(623 510)"><path d="M0 -13L10.2 -8.1L12.7 2.9L5.6 11.7L-5.6 11.7L-12.7 2.9L-10.2 -8.1Z" fill="#297EA6"></path></g><g transform="translate(822 306)"><path d="M0 -13L10.2 -8.1L12.7 2.9L5.6 11.7L-5.6 11.7L-12.7 2.9L-10.2 -8.1Z" fill="#297EA6"></path></g><g transform="translate(13 82)"><path d="M0 -13L10.2 -8.1L12.7 2.9L5.6 11.7L-5.6 11.7L-12.7 2.9L-10.2 -8.1Z" fill="#297EA6"></path></g><g transform="translate(837 382)"><path d="M0 -13L10.2 -8.1L12.7 2.9L5.6 11.7L-5.6 11.7L-12.7 2.9L-10.2 -8.1Z" fill="#297EA6"></path></g><g transform="translate(296 437)"><path d="M0 -13L10.2 -8.1L12.7 2.9L5.6 11.7L-5.6 11.7L-12.7 2.9L-10.2 -8.1Z" fill="#297EA6"></path></g><g transform="translate(550 136)"><path d="M0 -13L10.2 -8.1L12.7 2.9L5.6 11.7L-5.6 11.7L-12.7 2.9L-10.2 -8.1Z" fill="#297EA6"></path></g><g transform="translate(353 131)"><path d="M0 -13L10.2 -8.1L12.7 2.9L5.6 11.7L-5.6 11.7L-12.7 2.9L-10.2 -8.1Z" fill="#297EA6"></path></g><g transform="translate(570 268)"><path d="M0 -13L10.2 -8.1L12.7 2.9L5.6 11.7L-5.6 11.7L-12.7 2.9L-10.2 -8.1Z" fill="#297EA6"></path></g><g transform="translate(301 3)"><path d="M0 -13L10.2 -8.1L12.7 2.9L5.6 11.7L-5.6 11.7L-12.7 2.9L-10.2 -8.1Z" fill="#297EA6"></path></g><g transform="translate(536 589)"><path d="M0 -13L10.2 -8.1L12.7 2.9L5.6 11.7L-5.6 11.7L-12.7 2.9L-10.2 -8.1Z" fill="#297EA6"></path></g><g transform="translate(84 254)"><path d="M0 -13L10.2 -8.1L12.7 2.9L5.6 11.7L-5.6 11.7L-12.7 2.9L-10.2 -8.1Z" fill="#297EA6"></path></g><g transform="translate(194 27)"><path d="M0 -13L10.2 -8.1L12.7 2.9L5.6 11.7L-5.6 11.7L-12.7 2.9L-10.2 -8.1Z" fill="#297EA6"></path></g><g transform="translate(830 417)"><path d="M0 -13L10.2 -8.1L12.7 2.9L5.6 11.7L-5.6 11.7L-12.7 2.9L-10.2 -8.1Z" fill="#297EA6"></path></g><g transform="translate(394 29)"><path d="M0 -13L10.2 -8.1L12.7 2.9L5.6 11.7L-5.6 11.7L-12.7 2.9L-10.2 -8.1Z" fill="#297EA6"></path></g><g transform="translate(531 245)"><path d="M0 -13L10.2 -8.1L12.7 2.9L5.6 11.7L-5.6 11.7L-12.7 2.9L-10.2 -8.1Z" fill="#297EA6"></path></g><g transform="translate(498 334)"><path d="M0 -13L10.2 -8.1L12.7 2.9L5.6 11.7L-5.6 11.7L-12.7 2.9L-10.2 -8.1Z" fill="#297EA6"></path></g><g transform="translate(384 592)"><path d="M0 -13L10.2 -8.1L12.7 2.9L5.6 11.7L-5.6 11.7L-12.7 2.9L-10.2 -8.1Z" fill="#297EA6"></path></g><g transform="translate(213 60)"><path d="M0 -13L10.2 -8.1L12.7 2.9L5.6 11.7L-5.6 11.7L-12.7 2.9L-10.2 -8.1Z" fill="#297EA6"></path></g><g transform="translate(532 438)"><path d="M0 -13L10.2 -8.1L12.7 2.9L5.6 11.7L-5.6 11.7L-12.7 2.9L-10.2 -8.1Z" fill="#297EA6"></path></g><g transform="translate(239 439)"><path d="M0 -13L10.2 -8.1L12.7 2.9L5.6 11.7L-5.6 11.7L-12.7 2.9L-10.2 -8.1Z" fill="#297EA6"></path></g><g transform="translate(646 275)"><path d="M0 -13L10.2 -8.1L12.7 2.9L5.6 11.7L-5.6 11.7L-12.7 2.9L-10.2 -8.1Z" fill="#297EA6"></path></g><g transform="translate(295 208)"><path d="M0 -13L10.2 -8.1L12.7 2.9L5.6 11.7L-5.6 11.7L-12.7 2.9L-10.2 -8.1Z" fill="#297EA6"></path></g><g transform="translate(628 414)"><path d="M0 -13L10.2 -8.1L12.7 2.9L5.6 11.7L-5.6 11.7L-12.7 2.9L-10.2 -8.1Z" fill="#297EA6"></path></g><g transform="translate(785 46)"><path d="M0 -13L10.2 -8.1L12.7 2.9L5.6 11.7L-5.6 11.7L-12.7 2.9L-10.2 -8.1Z" fill="#297EA6"></path></g><g transform="translate(789 504)"><path d="M0 -13L10.2 -8.1L12.7 2.9L5.6 11.7L-5.6 11.7L-12.7 2.9L-10.2 -8.1Z" fill="#297EA6"></path></g><g transform="translate(71 283)"><path d="M0 -13L10.2 -8.1L12.7 2.9L5.6 11.7L-5.6 11.7L-12.7 2.9L-10.2 -8.1Z" fill="#297EA6"></path></g><g transform="translate(790 196)"><path d="M0 -13L10.2 -8.1L12.7 2.9L5.6 11.7L-5.6 11.7L-12.7 2.9L-10.2 -8.1Z" fill="#297EA6"></path></g><g transform="translate(783 581)"><path d="M0 -13L10.2 -8.1L12.7 2.9L5.6 11.7L-5.6 11.7L-12.7 2.9L-10.2 -8.1Z" fill="#297EA6"></path></g><g transform="translate(897 380)"><path d="M0 -13L10.2 -8.1L12.7 2.9L5.6 11.7L-5.6 11.7L-12.7 2.9L-10.2 -8.1Z" fill="#297EA6"></path></g><g transform="translate(103 201)"><path d="M0 -13L10.2 -8.1L12.7 2.9L5.6 11.7L-5.6 11.7L-12.7 2.9L-10.2 -8.1Z" fill="#297EA6"></path></g><g transform="translate(34 328)"><path d="M0 -13L10.2 -8.1L12.7 2.9L5.6 11.7L-5.6 11.7L-12.7 2.9L-10.2 -8.1Z" fill="#297EA6"></path></g><g transform="translate(67 227)"><path d="M0 -13L10.2 -8.1L12.7 2.9L5.6 11.7L-5.6 11.7L-12.7 2.9L-10.2 -8.1Z" fill="#297EA6"></path></g><g transform="translate(237 28)"><path d="M0 -13L10.2 -8.1L12.7 2.9L5.6 11.7L-5.6 11.7L-12.7 2.9L-10.2 -8.1Z" fill="#297EA6"></path></g><g transform="translate(658 201)"><path d="M0 -13L10.2 -8.1L12.7 2.9L5.6 11.7L-5.6 11.7L-12.7 2.9L-10.2 -8.1Z" fill="#297EA6"></path></g><g transform="translate(789 266)"><path d="M0 -13L10.2 -8.1L12.7 2.9L5.6 11.7L-5.6 11.7L-12.7 2.9L-10.2 -8.1Z" fill="#297EA6"></path></g><g transform="translate(802 11)"><path d="M0 -13L10.2 -8.1L12.7 2.9L5.6 11.7L-5.6 11.7L-12.7 2.9L-10.2 -8.1Z" fill="#297EA6"></path></g><g transform="translate(786 376)"><path d="M0 -13L10.2 -8.1L12.7 2.9L5.6 11.7L-5.6 11.7L-12.7 2.9L-10.2 -8.1Z" fill="#297EA6"></path></g><g transform="translate(713 60)"><path d="M0 -13L10.2 -8.1L12.7 2.9L5.6 11.7L-5.6 11.7L-12.7 2.9L-10.2 -8.1Z" fill="#297EA6"></path></g><g transform="translate(760 456)"><path d="M0 -13L10.2 -8.1L12.7 2.9L5.6 11.7L-5.6 11.7L-12.7 2.9L-10.2 -8.1Z" fill="#297EA6"></path></g><g transform="translate(726 163)"><path d="M0 -13L10.2 -8.1L12.7 2.9L5.6 11.7L-5.6 11.7L-12.7 2.9L-10.2 -8.1Z" fill="#297EA6"></path></g><g transform="translate(485 104)"><path d="M0 -13L10.2 -8.1L12.7 2.9L5.6 11.7L-5.6 11.7L-12.7 2.9L-10.2 -8.1Z" fill="#297EA6"></path></g><g transform="translate(46 187)"><path d="M0 -13L10.2 -8.1L12.7 2.9L5.6 11.7L-5.6 11.7L-12.7 2.9L-10.2 -8.1Z" fill="#297EA6"></path></g><g transform="translate(91 406)"><path d="M0 -13L10.2 -8.1L12.7 2.9L5.6 11.7L-5.6 11.7L-12.7 2.9L-10.2 -8.1Z" fill="#297EA6"></path></g><g transform="translate(294 365)"><path d="M0 -13L10.2 -8.1L12.7 2.9L5.6 11.7L-5.6 11.7L-12.7 2.9L-10.2 -8.1Z" fill="#297EA6"></path></g><g transform="translate(625 577)"><path d="M0 -13L10.2 -8.1L12.7 2.9L5.6 11.7L-5.6 11.7L-12.7 2.9L-10.2 -8.1Z" fill="#297EA6"></path></g><g transform="translate(183 241)"><path d="M0 -13L10.2 -8.1L12.7 2.9L5.6 11.7L-5.6 11.7L-12.7 2.9L-10.2 -8.1Z" fill="#297EA6"></path></g><g transform="translate(469 178)"><path d="M0 -13L10.2 -8.1L12.7 2.9L5.6 11.7L-5.6 11.7L-12.7 2.9L-10.2 -8.1Z" fill="#297EA6"></path></g><g transform="translate(3 39)"><path d="M0 -13L10.2 -8.1L12.7 2.9L5.6 11.7L-5.6 11.7L-12.7 2.9L-10.2 -8.1Z" fill="#297EA6"></path></g><g transform="translate(145 187)"><path d="M0 -13L10.2 -8.1L12.7 2.9L5.6 11.7L-5.6 11.7L-12.7 2.9L-10.2 -8.1Z" fill="#297EA6"></path></g><g transform="translate(725 291)"><path d="M0 -13L10.2 -8.1L12.7 2.9L5.6 11.7L-5.6 11.7L-12.7 2.9L-10.2 -8.1Z" fill="#297EA6"></path></g><g transform="translate(24 251)"><path d="M0 -13L10.2 -8.1L12.7 2.9L5.6 11.7L-5.6 11.7L-12.7 2.9L-10.2 -8.1Z" fill="#297EA6"></path></g><g transform="translate(532 546)"><path d="M0 -13L10.2 -8.1L12.7 2.9L5.6 11.7L-5.6 11.7L-12.7 2.9L-10.2 -8.1Z" fill="#297EA6"></path></g><g transform="translate(727 457)"><path d="M0 -13L10.2 -8.1L12.7 2.9L5.6 11.7L-5.6 11.7L-12.7 2.9L-10.2 -8.1Z" fill="#297EA6"></path></g><g transform="translate(456 298)"><path d="M0 -13L10.2 -8.1L12.7 2.9L5.6 11.7L-5.6 11.7L-12.7 2.9L-10.2 -8.1Z" fill="#297EA6"></path></g><g transform="translate(14 143)"><path d="M0 -13L10.2 -8.1L12.7 2.9L5.6 11.7L-5.6 11.7L-12.7 2.9L-10.2 -8.1Z" fill="#297EA6"></path></g><g transform="translate(666 309)"><path d="M0 -13L10.2 -8.1L12.7 2.9L5.6 11.7L-5.6 11.7L-12.7 2.9L-10.2 -8.1Z" fill="#297EA6"></path></g><g transform="translate(76 501)"><path d="M0 -13L10.2 -8.1L12.7 2.9L5.6 11.7L-5.6 11.7L-12.7 2.9L-10.2 -8.1Z" fill="#297EA6"></path></g><g transform="translate(736 555)"><path d="M0 -13L10.2 -8.1L12.7 2.9L5.6 11.7L-5.6 11.7L-12.7 2.9L-10.2 -8.1Z" fill="#297EA6"></path></g><g transform="translate(892 275)"><path d="M0 -13L10.2 -8.1L12.7 2.9L5.6 11.7L-5.6 11.7L-12.7 2.9L-10.2 -8.1Z" fill="#297EA6"></path></g><g transform="translate(896 592)"><path d="M0 -13L10.2 -8.1L12.7 2.9L5.6 11.7L-5.6 11.7L-12.7 2.9L-10.2 -8.1Z" fill="#297EA6"></path></g><g transform="translate(862 559)"><path d="M0 -13L10.2 -8.1L12.7 2.9L5.6 11.7L-5.6 11.7L-12.7 2.9L-10.2 -8.1Z" fill="#297EA6"></path></g><g transform="translate(419 203)"><path d="M0 -13L10.2 -8.1L12.7 2.9L5.6 11.7L-5.6 11.7L-12.7 2.9L-10.2 -8.1Z" fill="#297EA6"></path></g><g transform="translate(676 30)"><path d="M0 -13L10.2 -8.1L12.7 2.9L5.6 11.7L-5.6 11.7L-12.7 2.9L-10.2 -8.1Z" fill="#297EA6"></path></g><g transform="translate(643 243)"><path d="M0 -13L10.2 -8.1L12.7 2.9L5.6 11.7L-5.6 11.7L-12.7 2.9L-10.2 -8.1Z" fill="#297EA6"></path></g><g transform="translate(340 357)"><path d="M0 -13L10.2 -8.1L12.7 2.9L5.6 11.7L-5.6 11.7L-12.7 2.9L-10.2 -8.1Z" fill="#297EA6"></path></g><g transform="translate(897 530)"><path d="M0 -13L10.2 -8.1L12.7 2.9L5.6 11.7L-5.6 11.7L-12.7 2.9L-10.2 -8.1Z" fill="#297EA6"></path></g><g transform="translate(754 493)"><path d="M0 -13L10.2 -8.1L12.7 2.9L5.6 11.7L-5.6 11.7L-12.7 2.9L-10.2 -8.1Z" fill="#297EA6"></path></g><g transform="translate(333 415)"><path d="M0 -13L10.2 -8.1L12.7 2.9L5.6 11.7L-5.6 11.7L-12.7 2.9L-10.2 -8.1Z" fill="#297EA6"></path></g><g transform="translate(268 378)"><path d="M0 -13L10.2 -8.1L12.7 2.9L5.6 11.7L-5.6 11.7L-12.7 2.9L-10.2 -8.1Z" fill="#297EA6"></path></g><g transform="translate(436 56)"><path d="M0 -13L10.2 -8.1L12.7 2.9L5.6 11.7L-5.6 11.7L-12.7 2.9L-10.2 -8.1Z" fill="#297EA6"></path></g><g transform="translate(724 397)"><path d="M0 -13L10.2 -8.1L12.7 2.9L5.6 11.7L-5.6 11.7L-12.7 2.9L-10.2 -8.1Z" fill="#297EA6"></path></g><g transform="translate(128 8)"><path d="M0 -13L10.2 -8.1L12.7 2.9L5.6 11.7L-5.6 11.7L-12.7 2.9L-10.2 -8.1Z" fill="#297EA6"></path></g><g transform="translate(17 304)"><path d="M0 -13L10.2 -8.1L12.7 2.9L5.6 11.7L-5.6 11.7L-12.7 2.9L-10.2 -8.1Z" fill="#297EA6"></path></g><g transform="translate(861 115)"><path d="M0 -13L10.2 -8.1L12.7 2.9L5.6 11.7L-5.6 11.7L-12.7 2.9L-10.2 -8.1Z" fill="#297EA6"></path></g><g transform="translate(600 287)"><path d="M0 -13L10.2 -8.1L12.7 2.9L5.6 11.7L-5.6 11.7L-12.7 2.9L-10.2 -8.1Z" fill="#297EA6"></path></g><g transform="translate(419 473)"><path d="M0 -13L10.2 -8.1L12.7 2.9L5.6 11.7L-5.6 11.7L-12.7 2.9L-10.2 -8.1Z" fill="#297EA6"></path></g><g transform="translate(119 534)"><path d="M0 -13L10.2 -8.1L12.7 2.9L5.6 11.7L-5.6 11.7L-12.7 2.9L-10.2 -8.1Z" fill="#297EA6"></path></g><g transform="translate(470 337)"><path d="M0 -13L10.2 -8.1L12.7 2.9L5.6 11.7L-5.6 11.7L-12.7 2.9L-10.2 -8.1Z" fill="#297EA6"></path></g><g transform="translate(264 117)"><path d="M0 -13L10.2 -8.1L12.7 2.9L5.6 11.7L-5.6 11.7L-12.7 2.9L-10.2 -8.1Z" fill="#297EA6"></path></g><g transform="translate(595 513)"><path d="M0 -13L10.2 -8.1L12.7 2.9L5.6 11.7L-5.6 11.7L-12.7 2.9L-10.2 -8.1Z" fill="#297EA6"></path></g><g transform="translate(160 329)"><path d="M0 -13L10.2 -8.1L12.7 2.9L5.6 11.7L-5.6 11.7L-12.7 2.9L-10.2 -8.1Z" fill="#297EA6"></path></g><g transform="translate(393 262)"><path d="M0 -13L10.2 -8.1L12.7 2.9L5.6 11.7L-5.6 11.7L-12.7 2.9L-10.2 -8.1Z" fill="#297EA6"></path></g><g transform="translate(484 233)"><path d="M0 -13L10.2 -8.1L12.7 2.9L5.6 11.7L-5.6 11.7L-12.7 2.9L-10.2 -8.1Z" fill="#297EA6"></path></g><g transform="translate(734 83)"><path d="M0 -13L10.2 -8.1L12.7 2.9L5.6 11.7L-5.6 11.7L-12.7 2.9L-10.2 -8.1Z" fill="#297EA6"></path></g><g transform="translate(456 563)"><path d="M0 -13L10.2 -8.1L12.7 2.9L5.6 11.7L-5.6 11.7L-12.7 2.9L-10.2 -8.1Z" fill="#297EA6"></path></g></g></svg>